<svg version="1.1" viewBox="0 0 128 128" xmlns="http://www.w3.org/2000/svg" xmlns:cc="http://creativecommons.org/ns#" xmlns:dc="http://purl.org/dc/elements/1.1/" xmlns:rdf="http://www.w3.org/1999/02/22-rdf-syntax-ns#">
  <metadata>
    <rdf:RDF>
      <cc:Work rdf:about="">
        <dc:format>image/svg+xml</dc:format>
        <dc:type rdf:resource="http://purl.org/dc/dcmitype/StillImage"/>
        <dc:title/>
      </cc:Work>
    </rdf:RDF>
  </metadata>
  <rect width="128" height="128" fill="#4c7e3a"/>
  <g transform="matrix(1.3151 0 0 1.3151 -20.166 -20.166)" fill="#fff">
    <path d="m91.344 43.844-12.188-12.188c-1.445-1.445-4.336-2.656-6.406-2.656h-35c-2.07 0-3.75 1.68-3.75 3.75v62.5c0 2.0703 1.6797 3.75 3.75 3.75h52.5c2.07 0 3.75-1.68 3.75-3.75v-45c0-2.0703-1.2109-4.9609-2.6562-6.4062zm-17.344-9.532c.66406.23438 1.3281.58594 1.6016.85938l12.226 12.227c.274.274.625.938.86 1.602h-14.688zm15 59.688h-50v-60h30v16.25c0 2.07 1.68 3.75 3.75 3.75h16.25z"/>
  </g>
  <g transform="matrix(.14396 0 0 .14396 96.296 -.76103)" fill="#fff">
    <path d="m163.54 118.43h-70.204v-71.079c0-12.285-9.6529-21.061-21.938-21.061h-.87753c-12.286 0-21.061 8.3366-21.061 21.061v71.08h-72.397c-12.285 0-24.132 9.6529-24.132 21.938v.87753c0 12.285 11.847 20.622 24.132 20.622h68.009v71.08c0 12.285 11.408 21.061 24.132 21.061h.87753c12.286 0 23.255-8.3366 23.255-21.061v-71.08h70.203c12.285 0 21.938-9.6529 21.938-21.938v-.87753c0-12.285-9.6529-20.622-21.938-20.622z" fill="#fff" stroke-width="4.3877"/>
  </g>
  <path d="m40.473 61.308c.93287-.93242 3.0609-1.2134 3.0609-1.2134h7.848s2.7573-.0042 3.9115.31695c1.0625.29563 2.5156 1.3919 2.5156 1.3919l31.461 18.978-13.403 17.029-33.889-20.846s-1.309-.9107-1.7676-1.731c-.26064-.4662-.44394-1.9825-.44394-1.9825l-.19027-8.8045s-.12942-2.1129.8969-3.1388z" fill="#fff" fill-rule="evenodd" stroke="#fff" style="paint-order:markers stroke fill"/>
  <circle cx="47.122" cy="67.576" r="4.1695" fill="#4c7e3a" stroke="#fff" style="paint-order:stroke fill markers"/>
</svg>
