<svg xmlns="http://www.w3.org/2000/svg" viewBox="0 0 128 128" version="1.1">
 <rect width="128" height="128" fill="#4c7e3a"/>
 <g fill="#fff">
  <g transform="matrix(1.3151 0 0 1.3151 -20.166 -20.166)">
   <path d="m91.344 43.844-12.188-12.188c-1.445-1.445-4.336-2.656-6.406-2.656h-35c-2.07 0-3.75 1.68-3.75 3.75v62.5c0 2.0703 1.6797 3.75 3.75 3.75h52.5c2.07 0 3.75-1.68 3.75-3.75v-45c0-2.0703-1.2109-4.9609-2.6562-6.4062zm-17.344-9.532c.66406.23438 1.3281.58594 1.6016.85938l12.226 12.227c.274.274.625.938.86 1.602h-14.688zm15 59.688h-50v-60h30v16.25c0 2.07 1.68 3.75 3.75 3.75h16.25z"/>
  </g>
  <g transform="matrix(.14396 0 0 .14396 96.296 -.76103)">
   <path d="m163.54 118.43h-70.204v-71.079c0-12.285-9.6529-21.061-21.938-21.061h-.87753c-12.286 0-21.061 8.3366-21.061 21.061v71.08h-72.397c-12.285 0-24.132 9.6529-24.132 21.938v.87753c0 12.285 11.847 20.622 24.132 20.622h68.009v71.08c0 12.285 11.408 21.061 24.132 21.061h.87753c12.286 0 23.255-8.3366 23.255-21.061v-71.08h70.203c12.285 0 21.938-9.6529 21.938-21.938v-.87753c0-12.285-9.6529-20.622-21.938-20.622z" stroke-width="4.3877" fill="#fff"/>
  </g>
  <path style="paint-order:markers stroke fill;image-rendering:auto" d="m40.473 61.308c.93287-.93242 3.0609-1.2134 3.0609-1.2134s4.3758.02026 6.5599.13559c.44606.02356.95919.0206 1.742.18136.75145.15431 1.0464.29663 1.702.57834 12.528 5.383 35.732 19.791 35.732 19.791l-13.403 17.029-33.889-20.846s-1.3664-1.0105-1.7676-1.731c-.32946-.59166-.44394-1.9825-.44394-1.9825l-.19027-8.8045s-.12951-2.1126.89681-3.1384z" fill-rule="evenodd" stroke="#fff"/>
 </g>
 <circle style="paint-order:stroke fill markers" cx="47.122" stroke="#fff" cy="67.576" r="4.1695" fill="#4c7e3a"/>
</svg>
